<svg  id="login" version="1.1" xmlns="http://www.w3.org/2000/svg" xmlns:xlink="http://www.w3.org/1999/xlink" x="0px" y="0px"
	 viewBox="0 0 128 128" style="enable-background:new 0 0 128 128;" xml:space="preserve">
<path d="M105.82,102.76c-3.03-2.02-6.64-3.88-11.03-5.5c-15.92-5.85-17.56-8.5-17.56-22.24
	c5.62-5.46,6.79-14.75,6.79-14.75c4.37-0.39,7.49-9.44,3.04-13.58c0,0,2.11-8.19,2.11-16.39c0-15.1-12.34-17.91-12.34-17.91
	S74.15,7.17,63.9,7.15c-0.07,0-0.15,0.01-0.22,0.01C43.47,7.24,38.8,22.03,38.8,30.32c0,8.19,2.11,16.39,2.11,16.39
	c-4.45,4.14-1.33,13.19,3.04,13.58c0,0,1.17,9.29,6.79,14.75c0,13.74-1.64,16.39-17.56,22.24c-4.39,1.61-8.01,3.48-11.03,5.5
	c10.41,11.28,25.28,18.38,41.84,18.38S95.41,114.04,105.82,102.76z"/>
</svg>
