<svg version="1.1" id="password" xmlns="http://www.w3.org/2000/svg" xmlns:xlink="http://www.w3.org/1999/xlink" x="0px" y="0px"
	 viewBox="0 0 128 128" style="enable-background:new 0 0 128 128;" xml:space="preserve">
<path class="st0" d="M76.12,69.94l4.35-4.35c0.4-0.4,0.62-0.94,0.62-1.5l0-8.46c0-1.18,0.95-2.13,2.13-2.13l6.4,0
	c1.18,0,2.13-0.95,2.13-2.13l0-6.4c0-1.18,0.95-2.13,2.13-2.13l6.4,0c1.18,0,2.13-0.95,2.13-2.13l0-6.4c0-1.18,0.95-2.13,2.13-2.13
	h6.93c1.18,0,2.13-0.95,2.13-2.13V15.65c0-1.18-0.95-2.13-2.13-2.13l-15.94,0c-0.56,0-1.11,0.22-1.5,0.62L57.17,50.99
	c-11.48-4.27-24.89-1.83-34.12,7.4c-12.61,12.61-12.61,33.06,0,45.67s33.06,12.61,45.67,0C77.95,94.83,80.4,81.42,76.12,69.94z
	 M29.49,97.62c-3.9-3.9-3.9-10.23,0-14.14s10.23-3.9,14.14,0s3.9,10.23,0,14.14S33.4,101.52,29.49,97.62z"/>
</svg>
